<?xml version="1.0" encoding="utf-8"?>
<!-- Generator: Adobe Illustrator 17.1.0, SVG Export Plug-In . SVG Version: 6.00 Build 0)  -->
<!DOCTYPE svg PUBLIC "-//W3C//DTD SVG 1.1//EN" "http://www.w3.org/Graphics/SVG/1.1/DTD/svg11.dtd">
<svg version="1.1" id="Layer_1" xmlns="http://www.w3.org/2000/svg" xmlns:xlink="http://www.w3.org/1999/xlink" x="0px" y="0px"
	 viewBox="0 0 792 359" enable-background="new 0 0 792 359" xml:space="preserve">
<g>
	<g>
		<path fill="#FFFFFF" d="M423.5,206.9c-2.6,1.3-5.2,2.6-8.1,3.4c-2.9,0.8-5.5,1.3-8.3,1.8c-2.9,0.3-5.7,0.5-8.6,0.5
			c-5.5,0-10.4-0.8-14.9-2.3s-8.3-3.9-11.5-6.8c-3.1-2.9-5.7-6.5-7.3-10.4c-1.6-3.9-2.3-8.3-2.3-13.3c0-5.5,1-10.4,2.9-14.3
			c1.8-4.2,4.7-7.6,8.1-10.2s7.3-4.7,11.7-6c4.4-1.3,8.9-2.1,13.8-2.1c7.3,0,15.4,1.6,24.8,5v17c-3.1-2.1-6.3-3.7-9.4-5
			c-3.1-1.3-6.8-2.1-11-2.1c-3.7,0-7.3,0.8-10.4,2.1c-3.1,1.6-5.7,3.7-7.8,6.3s-2.9,6-2.9,9.6c0,3.1,0.8,6.3,2.6,8.9
			c1.8,2.6,4.2,5,7,6.5c3.1,1.6,6.5,2.3,10.4,2.3c3.1,0,6-0.3,8.9-1c2.9-0.8,5.2-1.6,7-2.6s3.9-2.1,5.7-3.4v16.2H423.5z"/>
		<path fill="#FFFFFF" d="M481.1,193c0,3.9-1,7.6-3.1,10.4c-2.1,2.9-5,5.2-8.6,6.8c-3.7,1.6-7.8,2.3-12.5,2.3c-1.3,0-2.9,0-5-0.3
			c-1.8-0.3-4.4-0.5-7.6-1.3s-6.5-1.8-9.9-3.4V192c3.1,2.1,6.5,3.7,9.4,5c3.1,1.3,6.5,2.1,9.9,2.1s5.5-0.5,6.3-1.6
			c1-1,1.6-2.1,1.6-3.1c0-1.8-0.8-3.1-2.6-4.4c-1.6-1.3-4.2-2.3-7.3-3.7c-3.4-1.6-6.5-3.1-9.1-4.7c-2.6-1.8-4.7-3.9-6.5-6.5
			c-1.6-2.6-2.6-5.7-2.6-9.4c0-3.4,0.8-6.5,2.6-9.4c1.6-2.9,4.2-5,7.8-6.8c3.4-1.6,7.8-2.6,12.8-2.6c3.7,0,6.8,0.3,9.9,1
			c3.1,0.8,5.5,1.6,7.6,2.3c2.1,0.8,3.4,1.6,4.2,2.1v14.9c-2.6-1.8-5.5-3.7-8.6-5c-3.1-1.6-6.5-2.1-10.2-2.1c-2.3,0-4.2,0.5-5.2,1.3
			s-1.6,2.1-1.6,3.4c0,1.3,0.5,2.3,1.6,3.4c1,1,2.9,2.1,5.7,3.4c5,2.3,8.9,4.4,11.7,6.3c2.9,1.8,5.2,3.9,7,6.3
			C480.4,186.5,481.1,189.6,481.1,193z"/>
		<path fill="#FFFFFF" d="M539,193c0,3.9-1,7.6-3.1,10.4c-2.1,2.9-5,5.2-8.6,6.8s-7.8,2.3-12.5,2.3c-1.3,0-2.9,0-5-0.3
			c-1.8-0.3-4.4-0.5-7.6-1.3s-6.5-1.8-9.9-3.4V192c3.1,2.1,6.5,3.7,9.4,5c3.1,1.3,6.5,2.1,9.9,2.1c3.4,0,5.5-0.5,6.3-1.6
			c1-1,1.6-2.1,1.6-3.1c0-1.8-0.8-3.1-2.6-4.4c-1.6-1.3-4.2-2.3-7.3-3.7c-3.4-1.6-6.5-3.1-9.1-4.7c-2.6-1.8-4.7-3.9-6.5-6.5
			c-1.6-2.6-2.6-5.7-2.6-9.4c0-3.4,0.8-6.5,2.6-9.4c1.6-2.9,4.2-5,7.8-6.8c3.4-1.6,7.8-2.6,12.8-2.6c3.7,0,6.8,0.3,9.9,1
			c3.1,0.8,5.5,1.6,7.6,2.3s3.4,1.6,4.2,2.1v14.9c-2.6-1.8-5.5-3.7-8.6-5c-3.1-1.6-6.5-2.1-10.2-2.1c-2.3,0-4.2,0.5-5.2,1.3
			c-1,0.8-1.6,2.1-1.6,3.4c0,1.3,0.5,2.3,1.6,3.4c1,1,2.9,2.1,5.7,3.4c5,2.3,8.9,4.4,11.7,6.3c2.9,1.8,5.2,3.9,7,6.3
			C538,186.5,539,189.6,539,193z"/>
	</g>
	<g>
		<path fill="#FFFFFF" d="M613.9,180h21.6v27.4c-7.8,3.4-15.9,5.2-23.5,5.2c-10.7,0-19.3-3.1-25.6-9.4c-6.3-6.3-9.6-13.8-9.6-22.9
			c0-9.6,3.4-17.7,9.9-24c6.5-6.3,14.9-9.6,24.8-9.6c3.7,0,7,0.5,10.4,1.3c3.1,0.8,7.3,2.3,12.3,4.4v9.4c-7.6-4.4-15.4-6.8-22.9-6.8
			c-7,0-13,2.3-17.7,7.3c-4.7,4.7-7.3,10.7-7.3,17.7c0,7.3,2.3,13.3,7.3,18c4.7,4.7,11,7,18.5,7c3.7,0,8.1-0.8,13.3-2.6l0.8-0.3
			v-13.3h-12.5V180H613.9z"/>
		<path fill="#FFFFFF" d="M649.4,211.8v-64.4h16.2c6.5,0,11.7,1.6,15.4,5c3.9,3.1,5.7,7.6,5.7,13c0,3.7-1,7-2.9,9.6
			c-1.8,2.6-4.4,4.7-8.1,6c2.1,1.3,4.2,3.1,6,5.5c2.1,2.3,4.7,6.5,8.3,12.3c2.3,3.7,3.9,6.5,5.5,8.3l3.4,4.7h-11l-2.9-4.2
			c0-0.3-0.3-0.5-0.5-0.8l-1.8-2.6l-2.9-4.7l-3.1-5c-1.8-2.6-3.7-4.7-5.2-6.3s-3.1-2.6-4.2-3.4c-1.3-0.8-3.4-1-6.5-1h-2.3v27.9
			L649.4,211.8L649.4,211.8z M661.3,155.2h-2.9v20.3h3.4c4.7,0,7.8-0.5,9.6-1.3c1.8-0.8,3.1-2.1,4.2-3.7c1-1.6,1.6-3.4,1.6-5.5
			s-0.5-3.9-1.6-5.5c-1-1.6-2.6-2.9-4.4-3.4C668.9,155.5,665.8,155.2,661.3,155.2z"/>
		<path fill="#FFFFFF" d="M705.9,147.4h9.1v64.4h-9.1V147.4z"/>
		<path fill="#FFFFFF" d="M729.7,211.6v-64.2h21.6c8.9,0,15.6,1.3,20.9,3.9c5.2,2.6,9.1,6.5,12.3,11.5c3.1,5,4.4,10.7,4.4,16.7
			c0,4.2-0.8,8.3-2.6,12.3c-1.6,3.9-3.9,7.3-7,10.4s-6.8,5.5-11,7c-2.3,1-4.7,1.6-6.8,1.8c-2.1,0.3-6,0.5-11.7,0.5L729.7,211.6
			L729.7,211.6z M750.3,155.5h-11.5v48h11.7c4.7,0,8.1-0.3,10.7-1c2.6-0.5,4.7-1.3,6.3-2.3c1.8-1,3.4-2.1,4.7-3.7
			c4.4-4.7,6.8-10.4,6.8-17.5s-2.3-12.5-7-17c-1.8-1.6-3.7-2.9-6-3.9s-4.4-1.8-6.3-2.1C758.1,155.7,754.7,155.5,750.3,155.5z"/>
	</g>
	<path fill="#FFFFFF" d="M155.2,355l-152-87.6V91.9L155.2,4l152,87.9v175.5L155.2,355z M23.5,255.6l131.7,76.1l131.7-76.1V103.3
		L155.2,27.4L23.5,103.3V255.6z"/>
	<g>
		<path fill="#FFFFFF" d="M227.1,241c-3.1,1-5.7,2.1-7.8,2.9c-2.1,0.8-4.4,1.6-6.3,2.1c-2.1,0.5-5,1.3-8.9,2.3
			c-6.5,1.6-13,2.6-19.6,3.4c-6.5,0.8-13.3,1.3-20.6,1.3c-14.6,0-27.9-2.6-40.2-7.8s-22.2-13.6-29.5-24.5c-7.3-11.2-11-24.8-11-40.9
			c0-10.4,1.8-20.6,5.7-30.8c3.9-10.2,9.6-18.3,17.5-24.3c6.5-5,13-8.9,19.6-11.5c6.5-2.6,13-4.4,19.3-5.2
			c6.3-0.8,13.3-1.3,20.9-1.3c12.5,0,22.9,1,31,2.9c8.1,1.8,17.2,4.4,26.9,7.6v33.9c-6.5-3.7-13.3-7-20.6-9.4
			c-7.3-2.3-15.9-4.7-26.9-4.7c-12.5,0-22.4,2.3-29.7,7c-7.6,4.7-12.8,10.4-15.6,17c-2.9,6.5-4.4,12.8-4.4,19c0,7.3,1.6,13.8,5,19.8
			c3.4,6,8.3,11,15.1,14.6c6.8,3.7,15.1,5.5,24.5,5.5c5.5,0,11.2-0.8,17.5-2.1v-16.7h-19.3v-28.7h57.1V241H227.1z"/>
	</g>
</g>
</svg>
